<svg width="100" height="100" viewBox="0 0 100 100" fill="none" xmlns="http://www.w3.org/2000/svg">
<rect width="100" height="100" rx="15" fill="#A09C9C"/>
<rect x="11" y="19.2562" width="7.25618" height="28.5712" rx="3.62809" transform="rotate(-90 11 19.2562)" fill="#2C2C2C"/>
<rect x="59.9792" y="19.2562" width="7.25618" height="28.5712" rx="3.62809" transform="rotate(-90 59.9792 19.2562)" fill="#2C2C2C"/>
<rect x="11" y="87.2828" width="7.25618" height="28.5712" rx="3.62809" transform="rotate(-90 11 87.2828)" fill="#2C2C2C"/>
<rect x="59.9792" y="87.2828" width="7.25618" height="28.5712" rx="3.62809" transform="rotate(-90 59.9792 87.2828)" fill="#2C2C2C"/>
<rect x="11" y="12" width="7.25618" height="27.2107" rx="3.62809" fill="#2C2C2C"/>
<rect x="81.2936" y="12" width="7.25618" height="27.2107" rx="3.62809" fill="#2C2C2C"/>
<rect x="67.6886" y="53.2695" width="7.25618" height="20.408" rx="3.62809" fill="#2C2C2C"/>
<rect x="67.6886" y="25.6054" width="7.25618" height="20.408" rx="3.62809" fill="#2C2C2C"/>
<rect x="53.6308" y="53.2695" width="6.80266" height="9.97724" rx="3.40133" fill="#2C2C2C"/>
<rect x="53.6308" y="67.3283" width="6.80266" height="6.80266" rx="3.40133" fill="#2C2C2C"/>
<rect x="53.6308" y="53.2695" width="10.4308" height="6.80266" rx="3.40133" fill="#2C2C2C"/>
<rect x="64.0604" y="66.8748" width="10.8843" height="6.80266" rx="3.40133" fill="#2C2C2C"/>
<rect x="53.1757" y="25.6054" width="7.25618" height="20.408" rx="3.62809" fill="#2C2C2C"/>
<rect x="25.06" y="25.6054" width="7.25618" height="48.0722" rx="3.62809" fill="#2C2C2C"/>
<rect x="39.5708" y="25.6054" width="7.25618" height="40.3625" rx="3.62809" fill="#2C2C2C"/>
<rect x="53.1757" y="32.8615" width="7.25618" height="21.7685" rx="3.62809" transform="rotate(-90 53.1757 32.8615)" fill="#2C2C2C"/>
<rect x="25.06" y="31.9545" width="6.34915" height="21.7685" rx="3.17458" transform="rotate(-90 25.06 31.9545)" fill="#2C2C2C"/>
<rect x="25.06" y="46.0133" width="7.25618" height="21.7685" rx="3.62809" transform="rotate(-90 25.06 46.0133)" fill="#2C2C2C"/>
<rect x="25.06" y="60.0722" width="6.80266" height="21.7685" rx="3.40133" transform="rotate(-90 25.06 60.0722)" fill="#2C2C2C"/>
<rect x="25.06" y="73.6775" width="6.34915" height="21.7685" rx="3.17458" transform="rotate(-90 25.06 73.6775)" fill="#2C2C2C"/>
<rect x="39.5708" y="55.0835" width="7.25618" height="10.8843" fill="#2C2C2C"/>
<rect x="39.5708" y="62.7932" width="7.25618" height="10.8843" rx="3.62809" fill="#2C2C2C"/>
<rect x="41.838" y="66.4214" width="3.17458" height="7.25618" rx="1.58729" fill="#D9D9D9"/>
<rect x="53.1757" y="46.0133" width="7.25618" height="21.7685" rx="3.62809" transform="rotate(-90 53.1757 46.0133)" fill="#2C2C2C"/>
<rect x="11" y="60.0722" width="7.25618" height="27.2107" rx="3.62809" fill="#2C2C2C"/>
<rect x="81.2936" y="60.0722" width="7.25618" height="27.2107" rx="3.62809" fill="#2C2C2C"/>
<rect x="35.4895" y="59.6187" width="0.907022" height="8.1632" rx="0.453511" fill="#2C2C2C"/>
<rect x="35.4895" y="45.5598" width="0.907022" height="8.1632" rx="0.453511" fill="#2C2C2C"/>
<rect x="35.4895" y="31.501" width="0.907022" height="8.1632" rx="0.453511" fill="#2C2C2C"/>
<rect x="43.1991" y="16.0816" width="2.26755" height="10.8843" rx="1.13378" fill="#2C2C2C"/>
<rect x="31.8613" y="64.1537" width="0.907022" height="8.1632" rx="0.453511" transform="rotate(-90 31.8613 64.1537)" fill="#2C2C2C"/>
<rect x="31.8613" y="50.0949" width="0.907022" height="8.1632" rx="0.453511" transform="rotate(-90 31.8613 50.0949)" fill="#2C2C2C"/>
<rect x="31.8613" y="36.036" width="0.907022" height="8.1632" rx="0.453511" transform="rotate(-90 31.8613 36.036)" fill="#2C2C2C"/>
<rect x="44.1071" y="70.0495" width="1.36053" height="0.453511" rx="0.226755" fill="#2C2C2C"/>
</svg>
